<svg width="53" height="12" viewBox="0 0 53 12" fill="none" xmlns="http://www.w3.org/2000/svg">
<path d="M1.5 5.25C1.08579 5.25 0.75 5.58579 0.75 6C0.75 6.41421 1.08579 6.75 1.5 6.75V5.25ZM52.0303 6.53033C52.3232 6.23744 52.3232 5.76256 52.0303 5.46967L47.2574 0.696699C46.9645 0.403806 46.4896 0.403806 46.1967 0.696699C45.9038 0.989593 45.9038 1.46447 46.1967 1.75736L50.4393 6L46.1967 10.2426C45.9038 10.5355 45.9038 11.0104 46.1967 11.3033C46.4896 11.5962 46.9645 11.5962 47.2574 11.3033L52.0303 6.53033ZM1.5 6.75H51.5V5.25H1.5V6.75Z" fill="#FBFBFB"/>
</svg>
