<svg width="19" height="19" viewBox="0 0 19 19" fill="none" xmlns="http://www.w3.org/2000/svg">
<path opacity="0.2" d="M16.3872 9.82016C16.3872 10.6981 15.1366 11.3605 14.7956 12.1844C14.4671 12.9788 14.8952 14.3353 14.2496 14.9809C13.604 15.6265 12.2475 15.1985 11.4531 15.5269C10.6327 15.8679 9.96604 17.1185 9.08884 17.1185C8.21164 17.1185 7.54497 15.8679 6.72461 15.5269C5.93021 15.1985 4.57371 15.6265 3.92809 14.9809C3.28247 14.3353 3.71054 12.9788 3.38212 12.1844C3.04107 11.364 1.79053 10.6974 1.79053 9.82016C1.79053 8.94296 3.04107 8.27629 3.38212 7.45593C3.71054 6.66224 3.28247 5.30503 3.92809 4.65941C4.57371 4.01379 5.93092 4.44187 6.72461 4.11344C7.54847 3.77239 8.21164 2.52185 9.08884 2.52185C9.96604 2.52185 10.6327 3.77239 11.4531 4.11344C12.2475 4.44187 13.604 4.01379 14.2496 4.65941C14.8952 5.30503 14.4671 6.66154 14.7956 7.45593C15.1366 8.2798 16.3872 8.94296 16.3872 9.82016Z" fill="#FD671C"/>
<path d="M15.9559 8.05332C15.6913 7.77683 15.4177 7.49191 15.3145 7.24138C15.2191 7.01191 15.2134 6.63155 15.2078 6.26313C15.1973 5.57821 15.1861 4.80206 14.6464 4.26241C14.1068 3.72275 13.3306 3.71153 12.6457 3.701C12.2773 3.69538 11.8969 3.68977 11.6675 3.59433C11.4176 3.49117 11.132 3.21749 10.8555 2.95292C10.3713 2.48765 9.82112 1.96063 9.08848 1.96063C8.35584 1.96063 7.80636 2.48765 7.32145 2.95292C7.04495 3.21749 6.76004 3.49117 6.50951 3.59433C6.28144 3.68977 5.89968 3.69538 5.53126 3.701C4.84634 3.71153 4.07019 3.72275 3.53054 4.26241C2.99088 4.80206 2.98316 5.57821 2.96913 6.26313C2.96351 6.63155 2.9579 7.01191 2.86246 7.24138C2.7593 7.49121 2.48561 7.77683 2.22105 8.05332C1.75578 8.53753 1.22876 9.08772 1.22876 9.82035C1.22876 10.553 1.75578 11.1025 2.22105 11.5874C2.48561 11.8639 2.7593 12.1488 2.86246 12.3993C2.9579 12.6288 2.96351 13.0092 2.96913 13.3776C2.97965 14.0625 2.99088 14.8386 3.53054 15.3783C4.07019 15.918 4.84634 15.9292 5.53126 15.9397C5.89968 15.9453 6.28003 15.9509 6.50951 16.0464C6.75934 16.1495 7.04495 16.4232 7.32145 16.6878C7.80566 17.1531 8.35584 17.6801 9.08848 17.6801C9.82112 17.6801 10.3706 17.1531 10.8555 16.6878C11.132 16.4232 11.4169 16.1495 11.6675 16.0464C11.8969 15.9509 12.2773 15.9453 12.6457 15.9397C13.3306 15.9292 14.1068 15.918 14.6464 15.3783C15.1861 14.8386 15.1973 14.0625 15.2078 13.3776C15.2134 13.0092 15.2191 12.6288 15.3145 12.3993C15.4177 12.1495 15.6913 11.8639 15.9559 11.5874C16.4212 11.1032 16.9482 10.553 16.9482 9.82035C16.9482 9.08772 16.4212 8.53824 15.9559 8.05332ZM15.1454 10.8105C14.8092 11.1614 14.4612 11.5242 14.2766 11.9698C14.0998 12.3979 14.092 12.887 14.085 13.3607C14.078 13.852 14.0703 14.3664 13.852 14.5839C13.6338 14.8015 13.1229 14.8099 12.6289 14.8169C12.1552 14.8239 11.666 14.8316 11.238 15.0085C10.7924 15.193 10.4295 15.5411 10.0787 15.8773C9.72779 16.2134 9.36919 16.5573 9.08848 16.5573C8.80778 16.5573 8.44637 16.212 8.0983 15.8773C7.75022 15.5425 7.38461 15.193 6.93899 15.0085C6.51091 14.8316 6.02179 14.8239 5.5481 14.8169C5.05687 14.8099 4.54247 14.8022 4.32493 14.5839C4.10738 14.3657 4.09896 13.8548 4.09194 13.3607C4.08493 12.887 4.07721 12.3979 3.90036 11.9698C3.7158 11.5242 3.36773 11.1614 3.03158 10.8105C2.69544 10.4597 2.35158 10.1011 2.35158 9.82035C2.35158 9.53965 2.69684 9.17824 3.03158 8.83017C3.36632 8.4821 3.7158 8.11648 3.90036 7.67086C4.07721 7.24279 4.08493 6.75366 4.09194 6.27997C4.09896 5.78874 4.10668 5.27435 4.32493 5.0568C4.54318 4.83926 5.05406 4.83083 5.5481 4.82382C6.02179 4.8168 6.51091 4.80908 6.93899 4.63224C7.38461 4.44767 7.74742 4.0996 8.0983 3.76346C8.44918 3.42731 8.80778 3.08345 9.08848 3.08345C9.36919 3.08345 9.73059 3.42872 10.0787 3.76346C10.4267 4.0982 10.7924 4.44767 11.238 4.63224C11.666 4.80908 12.1552 4.8168 12.6289 4.82382C13.1201 4.83083 13.6345 4.83855 13.852 5.0568C14.0696 5.27505 14.078 5.78593 14.085 6.27997C14.092 6.75366 14.0998 7.24279 14.2766 7.67086C14.4612 8.11648 14.8092 8.47929 15.1454 8.83017C15.4815 9.18105 15.8254 9.53965 15.8254 9.82035C15.8254 10.1011 15.4801 10.4625 15.1454 10.8105ZM12.2927 7.73893C12.3449 7.79107 12.3863 7.85299 12.4146 7.92114C12.4428 7.9893 12.4574 8.06235 12.4574 8.13613C12.4574 8.20991 12.4428 8.28296 12.4146 8.35111C12.3863 8.41927 12.3449 8.48118 12.2927 8.53332L8.36286 12.4632C8.31072 12.5154 8.2488 12.5568 8.18065 12.585C8.1125 12.6133 8.03944 12.6278 7.96566 12.6278C7.89189 12.6278 7.81883 12.6133 7.75068 12.585C7.68252 12.5568 7.62061 12.5154 7.56847 12.4632L5.88424 10.779C5.7789 10.6736 5.71972 10.5307 5.71972 10.3818C5.71972 10.2328 5.7789 10.0899 5.88424 9.98456C5.98958 9.87922 6.13246 9.82004 6.28144 9.82004C6.43042 9.82004 6.57329 9.87922 6.67863 9.98456L7.96566 11.2723L11.4983 7.73893C11.5505 7.68673 11.6124 7.64532 11.6805 7.61707C11.7487 7.58882 11.8217 7.57428 11.8955 7.57428C11.9693 7.57428 12.0424 7.58882 12.1105 7.61707C12.1787 7.64532 12.2406 7.68673 12.2927 7.73893Z" fill="#FD671C"/>
</svg>
